<?xml version="1.0" encoding="utf-8"?>
<!-- Generator: Adobe Illustrator 23.0.3, SVG Export Plug-In . SVG Version: 6.00 Build 0)  -->
<svg version="1.1" id="Layer_1" xmlns="http://www.w3.org/2000/svg" xmlns:xlink="http://www.w3.org/1999/xlink" x="0px" y="0px"
	 viewBox="0 0 27 27" style="enable-background:new 0 0 27 27;" xml:space="preserve">
<style type="text/css">
	.st0{fill:url(#XMLID_3_);}
	.st1{fill:#58595B;}
	.st2{fill:url(#SVGID_1_);stroke:#231F20;stroke-miterlimit:10;}
</style>
<g>
	<linearGradient id="XMLID_3_" gradientUnits="userSpaceOnUse" x1="1.7511" y1="22.9582" x2="20.1601" y2="4.5492">
		<stop  offset="0" style="stop-color:#00ADEE;stop-opacity:0.7"/>
		<stop  offset="0.174" style="stop-color:#02A9EB;stop-opacity:0.7174"/>
		<stop  offset="0.355" style="stop-color:#069CE1;stop-opacity:0.7355"/>
		<stop  offset="0.5392" style="stop-color:#0E88D2;stop-opacity:0.7539"/>
		<stop  offset="0.7257" style="stop-color:#196ABC;stop-opacity:0.7726"/>
		<stop  offset="0.9122" style="stop-color:#2645A0;stop-opacity:0.7912"/>
		<stop  offset="1" style="stop-color:#2E3191;stop-opacity:0.8"/>
	</linearGradient>
	<path id="XMLID_1_" class="st0" d="M6.5,25.2V10.1c0.1-0.5,0.6-3.3,3.3-5.1c0.2-0.1,3.4-2.1,6.9-0.6c0.5,0.2,2.6,1.2,3.7,3.6
		c1.4,3,0.1,5.9-0.1,6.3c0,1,0.1,2.1,0.1,3.1c3.1-3.3,3.5-8.3,1-11.9C18.5,1.5,12.9,0.8,9.1,3c-3.8,2.2-4.6,6.5-4.7,7.1
		c0,5,0,10.1,0,15.1H6.5z"/>
	<path class="st1" d="M12.7,20.4c0.1,0.1,0.5,0.3,1,0.3c0.5,0,0.9-0.2,1.1-0.3c0-2.9,0-5.7,0-8.6h-2.1V20.4z"/>
	<path class="st1" d="M18.7,19c-0.2,0.2-0.5,0.5-0.9,0.7c-0.4,0.3-0.8,0.4-1.1,0.5c0-3.2,0-6.4,0-9.6h2V19z"/>
	<path class="st1" d="M8.7,19c0.2,0.2,0.5,0.5,0.9,0.7c0.4,0.3,0.8,0.4,1.1,0.5c0-3.2,0-6.4,0-9.6h-2V19z"/>
	<linearGradient id="SVGID_1_" gradientUnits="userSpaceOnUse" x1="23.9595" y1="14.8348" x2="23.9595" y2="14.8348">
		<stop  offset="0" style="stop-color:#2483C5"/>
		<stop  offset="1" style="stop-color:#2483C5;stop-opacity:0"/>
	</linearGradient>
	<path class="st2" d="M24,14.8"/>
</g>
</svg>
